<mxfile host="app.diagrams.net" modified="2021-02-03T15:12:16.329Z" agent="5.0 (Windows NT 10.0; Win64; x64) AppleWebKit/537.36 (KHTML, like Gecko) Chrome/90.0.4407.0 Safari/537.36" etag="L7zjN6LVWvlagSrulcu3" version="14.2.9" type="github">
  <diagram id="Ro7jjz4fnRqXt9O_3c3Q" name="Page-1">
    <mxGraphModel dx="331" dy="1285" grid="1" gridSize="10" guides="1" tooltips="1" connect="1" arrows="1" fold="1" page="1" pageScale="1" pageWidth="850" pageHeight="1100" math="0" shadow="0">
      <root>
        <mxCell id="0" />
        <mxCell id="1" parent="0" />
        <mxCell id="s_XfVMtgGXcHWXwQwFxq-1" value="&lt;pre style=&quot;background-color: #282a36 ; color: #f8f8f2 ; font-family: &amp;#34;jetbrains mono&amp;#34; , monospace ; font-size: 12 0pt&quot;&gt;&lt;span style=&quot;color: #ff79c6&quot;&gt;MainContainer&lt;/span&gt;&lt;/pre&gt;" style="rounded=1;whiteSpace=wrap;html=1;fillColor=#282A36;" vertex="1" parent="1">
          <mxGeometry x="350" y="40" width="120" height="60" as="geometry" />
        </mxCell>
        <mxCell id="s_XfVMtgGXcHWXwQwFxq-3" value="" style="rounded=1;whiteSpace=wrap;html=1;fillColor=none;dashed=1;" vertex="1" parent="1">
          <mxGeometry x="350" y="10" width="170" height="90" as="geometry" />
        </mxCell>
        <mxCell id="s_XfVMtgGXcHWXwQwFxq-4" value="&lt;pre style=&quot;font-family: &amp;quot;jetbrains mono&amp;quot;, monospace;&quot;&gt;&lt;span style=&quot;&quot;&gt;withRouter&lt;/span&gt;&lt;/pre&gt;" style="text;html=1;align=center;verticalAlign=middle;whiteSpace=wrap;rounded=0;dashed=1;padding:10px;labelBackgroundColor=none;fontColor=#97D077;" vertex="1" parent="1">
          <mxGeometry x="440" y="10" width="70" height="20" as="geometry" />
        </mxCell>
        <mxCell id="s_XfVMtgGXcHWXwQwFxq-6" value="&lt;pre style=&quot;color: rgb(248, 248, 242); font-family: &amp;quot;jetbrains mono&amp;quot;, monospace;&quot;&gt;&lt;span style=&quot;color: #50fa7b&quot;&gt;App&lt;/span&gt;&lt;/pre&gt;" style="rounded=1;whiteSpace=wrap;html=1;dashed=1;labelBackgroundColor=#282A36;fontColor=#97D077;labelBorderColor=none;fillColor=#282A36;" vertex="1" parent="1">
          <mxGeometry x="360" y="-80" width="120" height="60" as="geometry" />
        </mxCell>
        <mxCell id="s_XfVMtgGXcHWXwQwFxq-7" value="" style="endArrow=classic;html=1;fontColor=#97D077;exitX=0.5;exitY=1;exitDx=0;exitDy=0;" edge="1" parent="1" source="s_XfVMtgGXcHWXwQwFxq-6">
          <mxGeometry width="50" height="50" relative="1" as="geometry">
            <mxPoint x="460" y="50" as="sourcePoint" />
            <mxPoint x="420" y="40" as="targetPoint" />
          </mxGeometry>
        </mxCell>
      </root>
    </mxGraphModel>
  </diagram>
</mxfile>
